C:\Users\nml-p\Documents\Projects\PredSim\OCP\IK_Guess_Full_cycling.mot
version=3
nRows=14
nColumns=29
inDegrees=no
endheader
time	pelvis_tilt	pelvis_list	pelvis_rotation	pelvis_tx	pelvis_ty	pelvis_tz	hip_flexion_r	hip_adduction_r	hip_rotation_r	knee_angle_r	knee_angle_r_beta	ankle_angle_r	subtalar_angle_r	mtp_angle_r	hip_flexion_l	hip_adduction_l	hip_rotation_l	knee_angle_l	knee_angle_l_beta	ankle_angle_l	subtalar_angle_l	mtp_angle_l	crank_rotation	crank_tx	crank_ty	crank_tz	pedal_rotation_r	pedal_rotation_l
0.1881084774150168	-0.2167012823627056	-0.0326406094447349	-0.02295416786582169	-0.1050015093796681	0.7942060508662077	0.01351731546745116	1.51015365203064	-0.1336724854135498	0.03888544469551158	-2.029699699309893	2.029699985212812	-0.1478169314254808	-0.05832458861652195	1.354258622910013e-07	0.7235020013276623	-0.1634620031324072	-0.03740858088343025	-0.697289158026327	0.6972891571362149	-0.3284203495559395	-0.01564156321695712	2.073623146368646e-07	-59.51689884912869	-0.001999145509821407	0.2359957231285784	-0.0009999917860145128	0	0
0.1956328165116175	-0.2166255932296602	-0.03131017512972391	-0.02178990093186767	-0.1051969134716062	0.7942992153005255	0.01392669983383126	1.523883937732777	-0.1336968539174541	0.03886561644467827	-2.026088618664809	2.026089043361614	-0.1376976417177113	-0.05708654339881764	1.276263763007684e-07	0.7198769366626859	-0.1627941568219013	-0.03731982793290606	-0.7089304961900978	0.7089305754879439	-0.3372415710727719	-0.01791769130247468	1.399171751741992e-07	-59.57973070220048	-0.001999261197771164	0.2359959284308079	-0.000999988135368949	0	0
0.2031571556082182	-0.2163028691196867	-0.02975669069469104	-0.02098842421419857	-0.1054487280982324	0.7944084422231039	0.0143497058413781	1.53594282926896	-0.1330657470456203	0.03879796604820508	-2.020007308743545	2.020007882840425	-0.1280974080977263	-0.05594546899741715	1.020130798098775e-07	0.7179526923480731	-0.1622575207271902	-0.03687329813941791	-0.7243212993243927	0.7243214670308872	-0.3453345651746745	-0.0203546968011322	6.077662654168809e-08	-59.64256255527228	-0.001999335606980502	0.2359961667280574	-0.0009999863469945694	0	0
0.2106814947048188	-0.2158471831431492	-0.02800735357208738	-0.02062341101717951	-0.105763084056757	0.7945114454908028	0.01478219102859099	1.546251096385351	-0.1317092682460572	0.03863726891925955	-2.011354216792945	2.011354950720871	-0.1189998209618624	-0.05492844513023305	4.361059513220161e-08	0.7179296762051399	-0.1618720257696787	-0.03597463772402421	-0.7435011197187635	0.7435013761596727	-0.3527975887554335	-0.02289932746876349	-2.567736303630228e-08	-59.70539440834406	-0.001999365238999279	0.2359964202648445	-0.0009999952345237551	0	0
0.2182058338014195	-0.2153677546007919	-0.02611801076270705	-0.02069985034975404	-0.106132895578857	0.7945947561165699	0.01521899025304574	1.554837468929879	-0.1296641997820572	0.03833983167867619	-2.000273982873543	2.000274867391151	-0.1102794870298507	-0.05403702397184769	-5.025248655855178e-08	0.7197483719075289	-0.1616481288903466	-0.03463449434362817	-0.7660370289168656	0.7660373632362142	-0.3597694853165264	-0.02549057893603783	-1.185726470250067e-07	-59.76822626141585	-0.001999364139628266	0.2359966691886622	-0.0009999904816240779	0	0
0.2257301728980202	-0.214973419655291	-0.02411654354677492	-0.02121237621413707	-0.1065484065769214	0.7946453838556421	0.01565128826758497	1.561607438836647	-0.1269789154206884	0.03788983767344559	-1.986765519106938	1.986766518683892	-0.1018245004189212	-0.05325836253977428	-1.631264870102478e-07	0.7234435145169013	-0.1615635615839445	-0.03283910394999585	-0.7916657101547608	0.791666098651672	-0.3662850396080468	-0.02808090682004034	-1.957403793683773e-07	-59.83105811448768	-0.001999345285098687	0.2359969028453789	-0.0009999988412297291	0	0
0.2332545119946209	-0.2147173549579185	-0.02201602989086256	-0.02211721399888736	-0.1069912736792292	0.7946618470053597	0.01606927870805656	1.566441520773226	-0.1237573073366321	0.03730378007951646	-1.970894525900473	1.97089560714764	-0.09347031128556374	-0.05257418742976065	-2.948340040375133e-07	0.7288717901209192	-0.1615455343104807	-0.03058617058550569	-0.8199478474486214	0.8199482694592498	-0.3723401454415441	-0.03060133974518362	-2.505687217124157e-07	-59.89388996755947	-0.001999347852754662	0.235997088101542	-0.001000010722860465	0	0
0.2407788510912215	-0.2145776437215365	-0.01982520825801788	-0.02333396620432919	-0.1074376832610894	0.7946569952179632	0.01646343383816437	1.569186431316241	-0.1201483075653972	0.03661427717948191	-1.952788386110855	1.952789515387019	-0.08504307254001964	-0.05195117972004715	-4.279704792954363e-07	0.735725602358213	-0.161507752955744	-0.02793793568223866	-0.850320984936501	0.8503214167060024	-0.3778610919250014	-0.0330059164723279	-2.727018149729045e-07	-59.95672182063125	-0.00199938809955383	0.2359972137617459	-0.001000023692914108	0	0
0.2483031901878222	-0.2144816805020295	-0.01754534772529566	-0.02475706591072323	-0.1078638919372821	0.7946469753176647	0.0168240582168666	1.569717602647604	-0.1163136848368857	0.03589098020036114	-1.932620579472458	1.932621719459513	-0.07639765320014359	-0.05134418564428078	-5.408497445218152e-07	0.7436609856415245	-0.1613596980197819	-0.02497221525790999	-0.8822626530165593	0.882263087864529	-0.3828083797559206	-0.0352706901841853	-2.579595091095722e-07	-60.01955367370304	-0.001999478328306334	0.235997276036258	-0.001000029484696932	0	0
0.2558275292844229	-0.2143096356928563	-0.01517089818760563	-0.02625902191020818	-0.1082456181209729	0.7946551082114494	0.01713691939420787	1.567827603980227	-0.1124516870398525	0.03519413693946662	-1.910483010778684	1.910484124939779	-0.06743890313688526	-0.05071438364847825	-6.203076030137832e-07	0.7523188992666646	-0.1609841492175064	-0.02173149600027887	-0.9153365151125131	0.9153369478519726	-0.3870769425172058	-0.0373756356071274	-2.056375837139019e-07	-60.08238552677484	-0.00199964046607842	0.2359972948406511	-0.00100002941181445	0	0
0.2633518683810235	-0.213885064501376	-0.01266638668987073	-0.02771360484736377	-0.10856266346407	0.7947094186443183	0.01739454967277617	1.563264267739089	-0.108739887666342	0.03459852690016188	-1.88639753696768	1.886398598341518	-0.05810076108079917	-0.05003951787427836	-6.536116679921782e-07	0.761316130594314	-0.1602563104518044	-0.01827382215212173	-0.9492272926267324	0.9492277177113259	-0.3905383471527076	-0.03930341249974214	-1.241949399924488e-07	-60.14521737984666	-0.001999865990118239	0.2359972897313573	-0.001000014750965054	0	0
0.2708762074776242	-0.2130415117715379	-0.01003500650964033	-0.0289994033623665	-0.1088056939216172	0.7948315436215359	0.01759179881395375	1.555975012429911	-0.1053323850504832	0.0341558282675221	-1.860539743248109	1.860540724660098	-0.04841535644055605	-0.04929020741738701	-6.389757354873434e-07	0.7703182478248287	-0.15911607720636	-0.01466269237842467	-0.9836482475445459	0.9836486683058715	-0.3931517448459892	-0.04106831751418578	-2.553810531485887e-08	-60.20804923291845	-0.002000119634307703	0.235997296034528	-0.001000000011965266	0	0
0.2784005465742249	-0.2116082794007881	-0.007253678917815949	-0.03000339075745308	-0.1089663993335266	0.7950404479697502	0.01772329229852666	1.545786195858649	-0.1023673364182619	0.03393333709901607	-1.832929741161843	1.832930627923656	-0.03846611288973222	-0.04845182956820719	-5.810334710873011e-07	0.7790912890800092	-0.1574737526793001	-0.01091243131056631	-1.018479439588769	1.018479870561827	-0.3948979030140515	-0.04266559077377963	7.303494709234217e-08	-60.27088108599023	-0.002000390467811467	0.235997332456657	-0.0009999873348429857	0	0
0.2859248856708256	-0.209459764100903	-0.004332124398031596	-0.03061201539536396	-0.1090445358938118	0.7953487352518891	0.01778718528514067	1.532662344512914	-0.09998739176886123	0.03392021800011569	-1.803628871455609	1.803629649226905	-0.0284320610907616	-0.04752788507894083	-4.89689446909047e-07	0.7874746729338796	-0.155301967762339	-0.007043033024002641	-1.053634377826844	1.053634832656678	-0.3957597846449376	-0.04409318431151826	1.459304702864477e-07	-60.33371293906202	-0.002000657681088811	0.2359974125426294	-0.0009999584272205127	0	0
